#!OML:ASF F:\VICON\USERDATA\INSTALL\rory3\rory3.ASF
:FULLY-SPECIFIED
:DEGREES
207
root 4.08425 17.2571 2.78866 20.3747 -5.34974 -6.70251
lowerback -5.02685 0.558244 7.72584
upperback -7.24892 0.653433 1.75073
thorax -4.69472 -0.0160517 -2.48656
lowerneck -11.1676 4.95518 0.184654
upperneck 33.1763 5.52909 4.98398
head 12.7204 3.10013 2.65189
rclavicle 1.95073e-014 -3.13831e-014
rhumerus -3.17217 -10.0993 -0.646361
rradius 110.683
rwrist -46.6692
rhand -4.58361 -43.8662
rfingers 7.12502
rthumb 21.1934 -72.7277
lclavicle 1.95073e-014 -3.13831e-014
lhumerus 20.1239 11.561 -10.5467
lradius 30.0258
lwrist 23.3927
lhand -28.2817 -23.1242
lfingers 7.12502
lthumb -1.65798 6.84906
rfemur -10.1632 1.49799 6.55468
rtibia 24.0864
rfoot 5.92303 -24.4638
rtoes -12.2628
lfemur -37.3668 -1.27628 -19.6181
ltibia 37.2956
lfoot -18.171 4.75764
ltoes 12.1062
208
root 4.09489 17.2493 2.78595 20.2941 -5.18573 -6.67675
lowerback -5.02551 0.492559 7.80086
upperback -7.08682 0.554612 1.72287
thorax -4.53257 -0.0602486 -2.55915
lowerneck -11.3619 4.8464 0.313629
upperneck 33.2129 5.42883 4.69343
head 12.7976 3.03231 2.51468
rclavicle -1.70683e-014 2.72583e-014
rhumerus -3.32715 -9.89504 -0.842872
rradius 110.654
rwrist -46.5579
rhand -4.82438 -44.3974
rfingers 7.12502
rthumb 20.9621 -73.2846
lclavicle -1.70683e-014 2.72583e-014
lhumerus 19.9637 11.4532 -10.4659
lradius 29.9708
lwrist 23.4143
lhand -27.5927 -24.0826
lfingers 7.12502
lthumb -0.992523 5.89479
rfemur -10.0923 1.30226 6.5391
rtibia 24.2664
rfoot 5.30664 -24.588
rtoes -10.1345
lfemur -37.395 -1.3557 -19.6572
ltibia 37.4685
lfoot -18.2686 4.60137
ltoes 12.562
209
root 4.09944 17.2418 2.77557 20.2705 -5.13953 -6.62106
lowerback -5.01468 0.465717 7.72441
upperback -6.97604 0.514387 1.69646
thorax -4.42331 -0.0708225 -2.54538
lowerneck -11.7269 4.82856 0.351024
upperneck 33.4812 5.41041 4.62412
head 12.9947 3.01699 2.50554
rclavicle 1.25801e-014 -3.67006e-014
rhumerus -3.63331 -9.54692 -0.936848
rradius 110.679
rwrist -46.2342
rhand -5.12723 -44.6053
rfingers 7.12502
rthumb 20.6712 -73.5245
lclavicle 1.25801e-014 -3.67006e-014
lhumerus 20.0342 11.6658 -10.0499
lradius 29.7808
lwrist 23.0914
lhand -27.3807 -24.7559
lfingers 7.12502
lthumb -0.787791 5.22237
rfemur -10.1962 1.30257 6.47356
rtibia 24.482
rfoot 5.38977 -24.5901
rtoes -9.86511
lfemur -37.5035 -1.38948 -19.7245
ltibia 37.6356
lfoot -18.2858 4.57114
ltoes 12.6412
210
root 4.10042 17.2383 2.76415 20.2441 -5.2274 -6.70517
lowerback -4.90908 0.499748 7.70827
upperback -6.9388 0.569049 1.70811
thorax -4.4374 -0.0418965 -2.5243
lowerneck -11.6731 4.8986 0.386178
upperneck 33.6109 5.52383 4.5677
head 13.0386 3.06283 2.49711
rclavicle 1.02696e-014 1.94188e-014
rhumerus -3.8035 -9.19528 -1.0783
rradius 110.589
rwrist -45.9792
rhand -5.16156 -44.2719
rfingers 7.12502
rthumb 20.6382 -73.1947
lclavicle 1.02696e-014 1.94188e-014
lhumerus 20.137 11.6931 -9.60579
lradius 29.6562
lwrist 22.7257
lhand -27.5978 -24.8258
lfingers 7.12502
lthumb -0.997458 5.15159
rfemur -10.4063 1.57994 6.53161
rtibia 24.7384
rfoot 6.84499 -24.2272
rtoes -13.3342
lfemur -37.5924 -1.36576 -19.6324
ltibia 37.7724
lfoot -18.1774 4.68552
ltoes 12.3865
211
root 4.1047 17.2363 2.75798 20.2288 -5.29212 -6.85676
lowerback -4.79446 0.558785 7.78067
upperback -6.98347 0.662113 1.74844
thorax -4.54137 -0.00231361 -2.52189
lowerneck -11.2064 4.91126 0.619558
upperneck 33.5397 5.594 4.2513
head 12.9286 3.08235 2.32371
rclavicle -2.08359e-014 6.49156e-015
rhumerus -3.85565 -8.73973 -1.22354
rradius 110.317
rwrist -45.6117
rhand -5.06115 -43.9868
rfingers 7.12502
rthumb 20.7347 -72.8991
lclavicle -2.08359e-014 6.49156e-015
lhumerus 20.0801 11.1041 -9.44283
lradius 29.7447
lwrist 22.819
lhand -27.761 -24.5664
lfingers 7.12502
lthumb -1.15511 5.41024
rfemur -10.61 1.77886 6.64463
rtibia 25.0152
rfoot 7.57411 -23.9902
rtoes -14.9612
lfemur -37.6426 -1.35158 -19.4792
ltibia 37.8626
lfoot -18.1286 4.7835
ltoes 12.1141
212
root 4.11148 17.2342 2.75793 20.2234 -5.39865 -6.83959
lowerback -4.81124 0.588736 7.6954
upperback -7.00426 0.703173 1.75718
thorax -4.54932 0.0217438 -2.46489
lowerneck -10.8338 4.8141 0.669895
upperneck 33.495 5.51143 4.04199
head 12.8421 3.02513 2.20725
rclavicle -9.98039e-015 1.21507e-014
rhumerus -3.80819 -8.2901 -1.41085
rradius 110.011
rwrist -45.1307
rhand -4.95182 -43.9605
rfingers 7.12502
rthumb 20.8397 -72.8613
lclavicle -9.98039e-015 1.21507e-014
lhumerus 19.852 10.2138 -9.49468
lradius 29.9784
lwrist 23.6368
lhand -28.1716 -24.4604
lfingers 7.12502
lthumb -1.55162 5.51367
rfemur -10.7603 1.86325 6.53753
rtibia 25.2466
rfoot 7.50837 -23.9307
rtoes -14.6105
lfemur -37.6421 -1.33513 -19.5492
ltibia 37.9134
lfoot -18.2809 4.85281
ltoes 12.2372
